{
	"asset":{
		"generator":"Khronos glTF Blender I/O v3.6.27",
		"version":"2.0"
	},
	"scene":0,
	"scenes":[
		{
			"name":"Scene",
			"nodes":[
				0
			]
		}
	],
	"nodes":[
		{
			"extras":{
				"sparkar_optimization":{
					"InvertedReducePercentage":0.0
				},
				"spark_blender_addon":1
			},
			"mesh":0,
			"name":"S006_CraneShovel_RETOPO.001"
		}
	],
	"materials":[
		{
			"doubleSided":true,
			"name":"Default OBJ.001",
			"pbrMetallicRoughness":{
				"baseColorTexture":{
					"index":0
				},
				"metallicFactor":0,
				"roughnessFactor":0.5
			}
		}
	],
	"meshes":[
		{
			"name":"S006_CraneShovel_RETOPO.001",
			"primitives":[
				{
					"attributes":{
						"POSITION":0,
						"NORMAL":1,
						"TEXCOORD_0":2
					},
					"indices":3,
					"material":0
				}
			]
		}
	],
	"textures":[
		{
			"sampler":0,
			"source":0
		}
	],
	"images":[
		{
			"bufferView":4,
			"mimeType":"image/png",
			"name":"S006_Texture"
		}
	],
	"accessors":[
		{
			"bufferView":0,
			"componentType":5126,
			"count":28916,
			"max":[
				0.7822160124778748,
				2.0451109409332275,
				1.4438824653625488
			],
			"min":[
				-0.8869184255599976,
				0.04554704576730728,
				-1.458025574684143
			],
			"type":"VEC3"
		},
		{
			"bufferView":1,
			"componentType":5126,
			"count":28916,
			"type":"VEC3"
		},
		{
			"bufferView":2,
			"componentType":5126,
			"count":28916,
			"type":"VEC2"
		},
		{
			"bufferView":3,
			"componentType":5123,
			"count":135063,
			"type":"SCALAR"
		}
	],
	"bufferViews":[
		{
			"buffer":0,
			"byteLength":346992,
			"byteOffset":0,
			"target":34962
		},
		{
			"buffer":0,
			"byteLength":346992,
			"byteOffset":346992,
			"target":34962
		},
		{
			"buffer":0,
			"byteLength":231328,
			"byteOffset":693984,
			"target":34962
		},
		{
			"buffer":0,
			"byteLength":270126,
			"byteOffset":925312,
			"target":34963
		},
		{
			"buffer":0,
			"byteLength":1704621,
			"byteOffset":1195440
		}
	],
	"samplers":[
		{
			"magFilter":9729,
			"minFilter":9987
		}
	],
	"buffers":[
		{
			"byteLength":2900064,
			"uri":"data:application/octet-stream;base64,"
		}
	]
}
